<svg xmlns="http://www.w3.org/2000/svg" viewBox="155 160 190 200" xml:space="preserve">
  <path d="M274.657 205c.002-8.5.1-16.5-.038-24.497-.06-3.413 1.204-4.8 4.67-4.733 7.83.149 15.666.143 23.497.027 3.479-.05 4.608 1.435 4.6 4.809-.085 37.33.28 74.665-.204 111.99-.35 27.021-22.898 48.894-51.15 50.436-21.71 1.185-40.132-5.375-52.63-24.261-5.641-8.523-8.391-18.116-8.608-28.308-.223-10.495-.161-20.998-.054-31.496.03-2.87-.773-5.026-2.81-7.1-7.25-7.38-9.569-16.27-8.57-26.547.948-9.76.941-19.614 1.328-29.427.145-3.658.106-7.31.848-10.943.6-2.937 2.243-4.41 5.113-4.449 3.004-.04 4.574 1.748 4.955 4.582.266 1.972.44 3.972.45 5.96q.07 14.5.01 28.997c-.015 3.629.632 7.283 4.95 7.21 4.27-.074 5.57-3.63 5.576-7.506.015-10.333-.03-20.666.003-30.998.018-5.663 2.171-8.53 6.172-8.424 3.908.104 6.406 3.217 6.459 8.567q.152 15.748-.001 31.497c-.035 3.607.85 6.695 4.87 6.713 4.147.019 5.518-3.177 5.532-6.902.042-10.832.069-21.665.004-32.497-.022-3.64.375-6.955 4.948-7.099 4.476-.14 5.468 3.19 5.667 6.73.736 13.124 1.248 26.261 2.058 39.38.67 10.88-2.878 20.035-10.907 27.274-3.165 2.853-4.254 5.952-4.117 10.1.275 8.323-.385 16.7.26 24.984 1.09 13.982 11.288 22.284 25.54 21.585 12.65-.62 21.525-10.469 21.556-24.16.06-26.998.02-53.996.023-81.494" stroke="white" fill="white"/>
</svg>
